<?xml version="1.0" encoding="UTF-8"?>
<svg id="Layer_2" xmlns="http://www.w3.org/2000/svg" viewBox="0 0 3000 3000">
  <defs>
    <style>
      .cls-1 {
        fill: #cba054;
      }
    </style>
  </defs>
  <g id="Circles_Outlined">
    <path class="cls-1" d="M2596.72,475.23c-11.6-12.3-23.46-24.43-35.57-36.38-59.2-59.98-122.81-113.95-189.94-161.82-57.67-41.14-117.94-77.78-180.24-109.86-70.46-36.29-143.52-66.76-218.35-91.31-304.73-100.02-638.71-102.03-946.09-.67-74.48,24.56-147.4,55.19-217.96,91.96-48.68,25.37-96.23,53.66-142.41,84.9-12.69,8.47-25.2,17.09-37.53,25.88-83.18,59.14-158.33,125.15-225.32,196.67-526.71,562.32-548.66,1464.89-.04,2049.89,11.59,12.37,23.45,24.6,35.56,36.68,59.9,60.07,123.45,113.84,189.89,161.39,57.7,41.3,117.57,77.92,179.13,109.89.26.14.52.27.78.4,69.65,36.16,141.43,66.35,214.67,90.69.32.11.63.21.95.31,308.65,102.37,642.62,100.63,948.06.18.33-.11.65-.21.98-.32,74.35-24.52,147.01-54.87,217.19-91.01.26-.13.53-.26.79-.4,62.13-32.03,122.31-68.59,180.02-109.62,80.6-57.3,156.37-123.33,225.83-197.93,54.37-58.4,104.88-122.06,150.83-190.9,387.6-572.83,321.21-1358.31-151.23-1858.62ZM2757.94,1985.36c-30.84,104.16-74.75,204.57-132.68,296.66-8.59,13.57-17.46,26.93-26.59,40.05-58.59,84.29-127.95,159.18-206.13,223.29-92.88,76.16-198.22,137.11-312.74,180.54-39.97,15.28-80.69,28.53-121.93,39.95-.36.1-.72.2-1.08.3-74.56,20.58-150.81,35.18-227.47,44.87-.4.05-.81.1-1.21.15-16.37,2.06-32.75,3.9-49.15,5.53-129.75,13.01-260.93,11.74-390.43-3.51-6.04-.7-12.09-1.44-18.14-2.21-.4-.05-.79-.1-1.19-.15-76.1-9.7-151.91-24.25-226.02-44.7-.36-.09-.71-.19-1.07-.29-30.55-8.45-60.8-17.91-90.67-28.44-81.59-28.6-160.11-66.11-233.46-112.12-38.44-24.38-75.42-51.09-110.63-79.97-27.86-22.85-54.61-47.07-80.09-72.58-46.5-46.43-88.69-97.11-126.17-151.04-9.07-13.04-17.86-26.27-26.37-39.67-46.03-73.35-83.5-151.89-112.12-233.46-38.39-108.79-62.44-222.75-75.8-337.09-15.25-129.5-16.5-260.68-3.5-390.43,13.52-136.44,41.75-272.48,90.8-400.84,32.72-86.28,75.38-167.34,126.99-241.79,57.94-83.55,127.14-158.78,206.24-223.71,34.99-28.72,71.91-55.43,110.65-79.96,92.09-57.92,192.5-101.83,296.66-132.68,9.56-2.84,19.14-5.59,28.76-8.23,74.92-20.63,151.42-35.27,228.47-44.99,21.76-2.76,43.56-5.11,65.38-7.1,130.04-11.74,261.35-9.36,390.87,7.1,5.27.67,10.53,1.36,15.79,2.08,72.99,9.85,144.12,23.9,212.96,42.92,159.19,43.93,306.17,114.36,435.72,220.73,27.52,22.58,54.24,46.79,80.13,72.71,47.66,47.62,89.54,98.06,126.2,151.01,117.73,170.08,181.56,366.11,210.16,577.81,18.33,134.62,21.41,271.33,9.18,406.65-9.92,108.99-29.04,217.51-60.32,322.61Z"/>
    <path class="cls-1" d="M2630.73,1118.75c-11.79-47.64-26.3-95.23-43.71-141.13-3.45-9.16-7.03-18.26-10.74-27.28-.29-.71-.58-1.41-.87-2.12-42.33-102.45-100.87-195.42-172.92-275.95-.36-.41-.72-.81-1.08-1.21-95.59-106.52-214.83-191.19-351.39-247.15-101.96-41.95-210.56-68.14-319.51-83.18-7.59-1.05-15.19-2.04-22.8-2.98-68.37-8.47-137.23-12.69-206.1-12.75-1.5,0-3.01,0-4.51.01-49.52.08-99.05,2.32-148.39,6.7-18.9,1.73-37.79,3.75-56.66,6.09-114.5,14.2-228.09,40.06-335.15,83.36-139.34,55.73-261.07,141.54-358.35,249.96-.36.41-.73.81-1.09,1.22-71.95,80.46-130.45,173.31-172.74,275.54-.3.73-.6,1.46-.9,2.2-3.74,9.1-7.36,18.29-10.84,27.54-17.4,45.9-31.93,93.5-43.71,141.13-30.19,124.78-44.08,253.09-44.27,381.25.18,128.17,14.08,256.49,44.27,381.25,11.79,47.64,26.3,95.23,43.71,141.14,3.48,9.26,7.1,18.44,10.84,27.55,42.35,103.08,101.17,196.68,173.63,277.7,97.46,109.01,219.58,195.26,359.45,251.2,106.46,43.06,219.4,68.87,333.25,83.12.64.08,1.29.16,1.93.24,18.86,2.34,37.74,4.36,56.63,6.09,49.07,4.35,98.33,6.6,147.59,6.7.68.01,1.36.01,2.04.01h3.25c.69,0,1.39,0,2.08-.01,68.17-.14,136.32-4.37,204-12.74.67-.08,1.35-.17,2.02-.25,6.95-.86,13.89-1.78,20.82-2.73,108.95-15.04,217.55-41.23,319.51-83.18,137.02-56.14,256.61-141.2,352.36-248.23,72.09-80.58,130.68-173.6,173.04-276.09,4.01-9.71,7.88-19.5,11.6-29.38,17.4-45.91,31.93-93.51,43.71-141.14,30.19-124.77,44.09-253.08,44.27-381.25-.18-128.16-14.08-256.48-44.27-381.25ZM2540.52,1857.94c-34.54,99.47-83.26,193.17-143.84,278.29-159.34,223.92-400.72,388.53-682.04,442.8-34.7,6.92-69.3,12.13-103.7,15.67-.74.08-1.49.16-2.23.23-6.38.65-12.75,1.24-19.11,1.76-.65.05-1.29.11-1.94.16-59.3,4.85-117.96,4.8-175.61.19-.64-.05-1.27-.1-1.91-.15-5.91-.48-11.8-1.01-17.68-1.59-.74-.07-1.49-.15-2.23-.23-319.41-32.04-605.37-204.07-786.89-458.02-60.93-85.24-110.1-179.71-144.81-281.21-38.01-111.14-58.69-230.72-58.53-355.84-.17-125.11,20.52-244.69,58.53-355.84.25-.73.5-1.47.75-2.2,34.68-100.69,83.58-194.43,144.12-279.07.32-.48.66-.95,1-1.42,181.58-253.13,467.04-424.55,785.84-456.54,7.13-.71,14.28-1.36,21.44-1.92,57.77-4.66,116.57-4.72,176,.14,7.29.59,14.6,1.26,21.91,2.02,34.85,3.54,69.89,8.79,105.05,15.8,280.76,54.15,521.72,218.21,681.06,441.44.33.46.65.92.98,1.38,60.76,85.37,109.58,179.36,144.13,279.14.24.7.49,1.41.72,2.11,38.68,112.37,59.27,232.03,58.47,354.96.81,124.03-20.15,244.72-59.48,357.94Z"/>
  </g>
  <g id="Curves_Outlined">
    <path class="cls-1" d="M2024.79,2788.25c-18.5-5.27-43.8-14.35-62.16-20.09-1.88-.64-3.83-1.32-5.84-2.01-17.63-6.13-39.33-14-55.83-19.96-66.25-24.61-130.75-52.66-193.29-83.94-36.88-18.45-73.08-38.02-108.55-58.68-3.83-2.23-7.65-4.47-11.46-6.72-29.72-17.58-58.91-35.91-87.56-54.99-321.05-213.65-573.92-519.65-722.47-881.89-6.75,26.39-13.04,52.9-18.83,79.39-6.04,27.59-11.63,55.66-16.63,83.44l-.3,1.59c-.99,5.01-3.65,20.32-5.24,29.46-.18,1.05-.36,2.07-.53,3.05,106.12,182.33,237.72,354.54,395.29,511.7,82.38,82.6,168.9,158.07,258.84,226.47,3.66,2.78,7.32,5.55,10.99,8.31,32.49,24.42,65.42,47.93,98.75,70.52.54.37,1.08.73,1.62,1.1,73.64,49.83,149.27,95.21,226.52,136.17,79.8,42.31,161.33,79.92,244.2,112.86.33-.11.65-.21.98-.32,74.35-24.52,147.01-54.87,217.19-91.01-55.79-12.87-111.19-27.74-165.69-44.45ZM661.11,1281.99c-6.34-28.97-12.13-58.03-17.36-87.09-1.47-8.24-6.32-35.08-7.53-42.37-1.18-7.34-2.82-18.17-4.42-28.54-1.21-7.83-2.39-15.4-3.34-20.99-2.05-13.55-4.74-35.58-6.8-49.59-5.14-39.09-9.38-81.17-13.07-120.5-1.09-13.59-2.5-35.61-3.76-49.65-.51-6.79-.99-13.58-1.43-20.37-4.25-63.35-6.23-126.93-5.94-190.55-71.95,80.46-130.45,173.31-172.74,275.54-.3.73-.6,1.46-.9,2.2,9.01,65,20.57,129.75,34.71,194.08,15.77,71.74,34.75,142.95,56.95,213.41,15.07,47.84,31.63,95.34,49.69,142.42,28.3,73.79,60.27,146.55,95.94,218.01,14.23-65.08,31.18-129.75,50.64-193.21,2.13-7.46,4.87-16.02,7.76-24.78-2.87-8.78-5.6-17.35-7.76-24.8-19.48-63.46-36.42-128.14-50.64-193.22Z"/>
    <path class="cls-1" d="M1972.62,75.86c-82.98,32.97-164.61,70.61-244.5,112.98-77.25,40.96-152.87,86.34-226.51,136.16-.75.51-1.5,1.02-2.26,1.53-33.18,22.51-65.96,45.92-98.3,70.24-3.61,2.71-7.21,5.43-10.81,8.16-89.94,68.41-176.46,143.87-258.84,226.46-197.07,196.54-353.51,416.62-470.29,650.6-35.67,71.46-67.64,144.22-95.94,218-44.65,116.43-80.16,235.4-106.64,355.85-14.15,64.33-25.71,129.09-34.71,194.1,42.35,103.08,101.17,196.68,173.63,277.7-.3-63.63,1.67-127.23,5.89-190.59,1.08-16.24,2.3-32.47,3.68-48.67l1.05-14.19.52-7.11.7-7.08c3.49-36.86,7.5-76.74,12.37-113.42,2.25-15.55,4.37-33.32,6.81-49.59,2.16-13.25,5.62-36.18,7.76-49.53,1.54-8.67,5.84-33.83,7.52-42.37,5.23-29.06,11.02-58.12,17.36-87.09,14.23-65.08,31.18-129.75,50.64-193.21,2.13-7.46,4.87-16.02,7.76-24.78,4.29-12.99,8.9-26.42,12.33-37.38,6.33-18.47,15.33-43.3,21.97-61.67,144.42-388.75,407.25-717.12,746.04-942.65,28.73-19.14,58.02-37.54,87.83-55.16,3.59-2.12,7.19-4.24,10.79-6.34,35.69-20.79,72.12-40.5,109.24-59.06,62.53-31.28,127.02-59.33,193.26-83.94,16.48-6.01,38.29-13.82,55.9-19.97,1.98-.69,3.9-1.36,5.76-2,18.47-5.94,43.72-14.75,62.16-20.09,54.66-16.78,110.23-31.68,166.18-44.58-70.46-36.29-143.52-66.76-218.35-91.31Z"/>
    <path class="cls-1" d="M2575.41,948.22c-42.33-102.45-100.87-195.42-172.92-275.95.31,63.84-1.62,127.74-5.81,191.52-1.36,20.69-2.95,41.36-4.78,62.02l-.53,7.1-.69,7.08c-2.01,18.44-3.31,37.87-5.62,56.73-3.47,31.61-8.13,67.74-12.53,99.2-2.24,15.9-6.49,40.77-8.79,56.61-2.59,15.92-7.43,40.64-9.99,56.53-3,15.9-8.24,40.54-11.24,56.42-1.31,6.03-2.63,12.06-3.98,18.09-16.18,72.63-35.21,145.54-58.09,216.32h0c-.32,1-.64,2-.96,2.99-135.55,428.3-410.82,793.99-779.38,1038.98-28.79,19.15-58.15,37.55-88.05,55.18-3.6,2.13-7.21,4.25-10.83,6.34-35.63,20.71-72.02,40.33-109.14,58.82-23.62,11.78-47.54,23.09-71.75,33.94-20.33,9.46-46.3,20.06-67.04,28.84-15.38,6.16-38.79,15.19-54.29,21.21-16.45,6-38.23,13.8-55.82,19.94-2.01.7-3.96,1.38-5.84,2.03-18.47,5.93-43.72,14.74-62.16,20.09-54.8,16.91-110.47,31.72-166.55,44.6,69.65,36.16,141.43,66.35,214.67,90.69.32.11.63.21.95.31,83.75-33.04,165.94-70.67,246.14-112.87,77.99-41.03,154.11-86.37,227.95-135.98.55-.36,1.09-.73,1.63-1.1,33.53-22.55,66.6-46,99.15-70.33,3.95-2.94,7.89-5.9,11.82-8.87,215.76-163.21,408.99-365.22,568.97-604.95,59.36-87.72,112.33-178.43,158.96-271.49,35.43-70.67,67.2-142.7,95.35-215.8,44.98-116.79,80.72-236.31,107.31-357.42,14.17-64.51,25.75-129.47,34.75-194.7-.29-.71-.58-1.41-.87-2.12Z"/>
    <path class="cls-1" d="M2575.42,2051.77c-9.11-65-20.75-129.67-34.9-193.83-15.82-71.7-34.76-142.78-56.82-213-15.05-47.92-31.54-95.44-49.48-142.48-28.32-74.24-60.22-147.31-95.69-218.89-16.18,72.63-35.21,145.54-58.09,216.32h0c2.9,8.83,5.64,17.44,7.81,24.93,19.61,63.55,36.4,128.26,50.62,193.44,8.87,40.6,16.75,81.38,23.7,122.17,1.77,10.28,3.7,22.98,5.6,35.3,1.35,8.81,2.69,17.43,3.92,24.83,5.8,42.7,12.01,88.24,15.86,131.13,3.57,34.78,6.48,69.63,8.73,104.54,4.12,63.77,6.03,127.71,5.7,191.63,72.09-80.58,130.68-173.6,173.04-276.09ZM1609.59,405.17c-3.7-2.8-7.4-5.58-11.12-8.36-32.28-24.07-65.32-47.51-99.12-70.28-.75-.51-1.5-1.01-2.25-1.52-2.45-1.64-4.9-3.28-7.35-4.92-70.79-47.9-143.53-91.65-217.88-131.25-80.05-42.66-161.97-80.53-245.34-113.65-74.48,24.56-147.4,55.19-217.96,91.96,65.35,15.16,130.71,32.7,194.31,53.37,13.57,4.29,27.08,8.73,40.52,13.31,85.67,29.14,168.71,63.93,248.65,103.97,37.02,18.54,73.37,38.21,109,58.97,3.55,2.06,7.1,4.14,10.63,6.24,29.91,17.66,59.31,36.11,88.17,55.3,301.8,200.68,544.72,483.13,696.29,821.36,8.5,18.27,17.93,41.11,26.12,60.6,6.41-25.2,12.62-51.29,18.66-78.44,1.23-5.49,2.42-10.9,3.59-16.3,1.59-8.32,3.62-18.34,5.6-28.04,1.86-9.15,3.78-18.6,5.14-25.77,1.45-8.82,3.36-19.29,5.21-29.42,1.15-6.27,2.32-12.69,3.3-18.31-161.43-279.54-380.12-532.12-654.17-738.82Z"/>
  </g>
</svg>