<?xml version="1.0" encoding="UTF-8"?>
<svg id="Text" xmlns="http://www.w3.org/2000/svg" viewBox="0 0 590.13 150">
  <defs>
    <style>
      .cls-1, .cls-2, .cls-3 {
        fill: #cba054;
      }

      .cls-2, .cls-3 {
        stroke: #cba054;
        stroke-miterlimit: 10;
      }

      .cls-3 {
        stroke-width: 2px;
      }
    </style>
  </defs>
  <g>
    <path class="cls-3" d="M180.99,86.09c.99-.99,1.51-2.17,1.56-3.56v-44.32c-.05-1.39-.57-2.57-1.56-3.56-.99-.99-2.17-1.48-3.56-1.48h-1.04v-.8h17.52v.8h-1.04c-1.92,0-3.39.83-4.4,2.48-.48.8-.72,1.65-.72,2.56v47.68h11.44c3.95,0,6.96-.88,9.04-2.64,2.08-1.76,3.81-4.37,5.2-7.84h.8l-4.64,12.96h-33.2v-.8h1.04c1.39,0,2.57-.49,3.56-1.48Z"/>
    <path class="cls-3" d="M240.75,86.09c.99-.99,1.51-2.17,1.56-3.56v-44.8c-.16-1.28-.72-2.36-1.68-3.24s-2.11-1.32-3.44-1.32h-.96l-.08-.8h23.44c1.65,0,3.45-.16,5.4-.48s3.32-.64,4.12-.96v10.08h-.8v-1.44c0-1.28-.44-2.37-1.32-3.28-.88-.91-1.93-1.39-3.16-1.44h-16.32v24.72h13.52c1.07-.05,1.97-.45,2.72-1.2.75-.75,1.12-1.68,1.12-2.8v-1.12h.8v12.64h-.8v-1.2c0-1.07-.36-1.97-1.08-2.72-.72-.75-1.61-1.15-2.68-1.2h-13.6v23.92h11.44c3.95,0,6.96-.88,9.04-2.64,2.08-1.76,3.81-4.37,5.2-7.84h.8l-4.64,12.96h-33.2v-.8h1.04c1.39,0,2.57-.49,3.56-1.48Z"/>
    <path class="cls-3" d="M352.79,33.17c-1.81,0-3.47.72-4.96,2.16-.85.75-1.52,1.68-2,2.8l-19.28,43.12c-1.97,4.32-2.96,7.07-2.96,8.24h-.72l-22.48-51.28c-.75-1.71-1.77-2.97-3.08-3.8-1.31-.83-2.63-1.24-3.96-1.24h-.64v-.8h18v.8h-.72c-1.6,0-2.67.75-3.2,2.24-.11.32-.16.69-.16,1.12s.13.96.4,1.6l16.72,41.92,17.44-41.92c.21-.64.32-1.27.32-1.88s-.28-1.28-.84-2c-.56-.72-1.4-1.08-2.52-1.08h-.72v-.8h16.08v.8h-.72Z"/>
    <path class="cls-3" d="M367.72,86.09c1.38-.99,2.38-2.17,3-3.56l17.94-44.4c.51-1.39.46-2.56-.14-3.52-.6-.96-1.59-1.44-2.98-1.44h-1.04l.32-.8h17.52l-.32.8h-1.04c-1.39,0-2.77.48-4.14,1.44-1.37.96-2.37,2.13-2.98,3.52l-17.94,44.4c-.56,1.39-.53,2.57.08,3.56.62.99,1.62,1.48,3,1.48h1.04l-.32.8h-17.52l.32-.8h1.04c1.39,0,2.77-.49,4.16-1.48Z"/>
    <path class="cls-3" d="M423.27,82.61c-.21.64-.32,1.27-.32,1.88s.28,1.28.84,2c.56.72,1.4,1.08,2.52,1.08h.72v.8h-16.08v-.8h.72c1.33,0,2.64-.43,3.92-1.28,1.43-.95,2.47-2.21,3.12-3.76l18.08-43.04c1.97-4.69,2.96-7.44,2.96-8.24h.72l21.44,51.28c.64,1.6,1.65,2.85,3.04,3.76,1.28.85,2.61,1.28,4,1.28h.64v.8h-18v-.8h.72c1.12,0,1.96-.36,2.52-1.08.56-.72.84-1.41.84-2.05,0-.68-.11-1.32-.32-1.91l-15.68-41.68-16.4,41.76Z"/>
    <path class="cls-3" d="M494.11,86.09c.99-.99,1.51-2.17,1.56-3.56v-44.8c-.16-1.28-.72-2.36-1.68-3.24s-2.11-1.32-3.44-1.32h-.96l-.08-.8h23.44c1.65,0,3.45-.16,5.4-.48,1.95-.32,3.32-.64,4.12-.96v10.08h-.8v-1.44c0-1.28-.44-2.37-1.32-3.28-.88-.91-1.93-1.39-3.16-1.44h-16.32v24.72h13.52c1.07-.05,1.97-.45,2.72-1.2.75-.75,1.12-1.68,1.12-2.8v-1.12h.8v12.64h-.8v-1.2c0-1.07-.36-1.97-1.08-2.72-.72-.75-1.61-1.15-2.68-1.2h-13.6v23.92h11.44c3.95,0,6.96-.88,9.04-2.64,2.08-1.76,3.81-4.37,5.2-7.84h.8l-4.64,12.96h-33.2v-.8h1.04c1.39,0,2.57-.49,3.56-1.48Z"/>
    <path class="cls-3" d="M555.47,86.09c.99-.99,1.51-2.17,1.56-3.56v-44.32c-.05-1.39-.57-2.57-1.56-3.56-.99-.99-2.17-1.48-3.56-1.48h-1.04v-.8h17.52v.8h-1.04c-1.92,0-3.39.83-4.4,2.48-.48.8-.72,1.65-.72,2.56v47.68h11.44c3.95,0,6.96-.88,9.04-2.64,2.08-1.76,3.81-4.37,5.2-7.84h.8l-4.64,12.96h-33.2v-.8h1.04c1.39,0,2.57-.49,3.56-1.48Z"/>
    <path class="cls-2" d="M195.57,124.15v.22h-4.77v-.2h.33c.25,0,.46-.1.64-.3.18-.2.25-.42.22-.65l-.99-11.07-4.62,10.28c-.41.89-.66,1.64-.75,2.24h-.22l-5.63-12.21-.95,10.76c-.03.23.04.45.22.65.18.2.38.3.62.3h.35v.2h-4.27v-.22h.35c.41,0,.77-.12,1.07-.37.3-.25.48-.59.54-1.01l1.65-14.1h.22l6.14,13.27,6.01-13.27h.2l1.69,14.1c.07.59.37,1,.88,1.23.22.1.46.15.73.15h.35Z"/>
    <path class="cls-2" d="M221.73,110.87c1.47,1.47,2.2,3.41,2.2,5.8s-.73,4.32-2.2,5.8c-1.47,1.47-3.37,2.21-5.72,2.21s-4.25-.74-5.71-2.21c-1.46-1.47-2.19-3.41-2.19-5.8s.73-4.32,2.19-5.8c1.46-1.47,3.36-2.21,5.71-2.21s4.25.74,5.72,2.21ZM220.53,121.99c1.14-1.35,1.71-3.12,1.71-5.32,0-1.45-.26-2.74-.77-3.85-.51-1.12-1.24-1.98-2.19-2.59-.95-.61-2.04-.91-3.27-.91-1.86,0-3.36.67-4.5,2.02-1.14,1.35-1.71,3.12-1.71,5.33s.57,3.97,1.71,5.32c1.14,1.35,2.64,2.02,4.51,2.02s3.37-.67,4.51-2.02Z"/>
    <path class="cls-2" d="M248.04,110.01c-.25-.26-.54-.39-.88-.41h-4.18v13.18c.01.38.16.7.43.97.27.26.6.4.98.4h.29v.22h-4.82v-.22h.29c.38,0,.71-.13.98-.4.27-.26.41-.58.43-.95v-13.2h-4.18c-.35.01-.65.15-.89.41-.24.26-.36.56-.36.91v.37l-.22.02v-2.77c.22.09.6.18,1.14.26.54.09,1.04.13,1.5.13h7.44c.72,0,1.32-.05,1.79-.17.48-.11.77-.19.87-.23v2.77l-.22-.02v-.37c0-.35-.12-.66-.37-.91Z"/>
    <path class="cls-2" d="M262.64,123.74c.27-.27.41-.6.43-.98v-12.21c-.01-.38-.16-.7-.43-.97-.27-.26-.6-.4-.98-.4h-.29v-.22h4.82v.22h-.29c-.38,0-.71.13-.98.4-.27.26-.41.59-.43.97v12.21c0,.38.14.71.42.98.28.27.61.41.99.41h.29v.22h-4.82v-.22h.29c.38,0,.71-.14.98-.41Z"/>
    <path class="cls-2" d="M293.21,110.87c1.47,1.47,2.2,3.41,2.2,5.8s-.73,4.32-2.2,5.8c-1.47,1.47-3.37,2.21-5.72,2.21s-4.25-.74-5.71-2.21c-1.46-1.47-2.19-3.41-2.19-5.8s.73-4.32,2.19-5.8c1.46-1.47,3.36-2.21,5.71-2.21s4.25.74,5.72,2.21ZM292.01,121.99c1.14-1.35,1.71-3.12,1.71-5.32,0-1.45-.26-2.74-.77-3.85-.51-1.12-1.24-1.98-2.19-2.59-.95-.61-2.04-.91-3.27-.91-1.86,0-3.36.67-4.5,2.02-1.14,1.35-1.71,3.12-1.71,5.33s.57,3.97,1.71,5.32c1.14,1.35,2.64,2.02,4.51,2.02s3.37-.67,4.51-2.02Z"/>
    <path class="cls-2" d="M323.22,109.57c-.26.26-.4.57-.42.94v11.35c0,.85.05,1.66.15,2.42l.04.4h-.2l-11.99-12.81v10.96c.01.51.24.89.68,1.14.21.12.43.18.66.18h.42v.22h-4.53v-.22h.42c.37,0,.68-.13.95-.38.26-.26.4-.58.4-.96v-11.42c0-.89-.05-1.69-.15-2.4l-.04-.35h.22l11.99,12.81v-10.91c-.01-.38-.15-.7-.42-.96-.26-.26-.58-.38-.95-.38h-.42v-.22h4.53v.22h-.4c-.37,0-.68.13-.95.38Z"/>
    <path class="cls-2" d="M338.27,116.35c.12-.36.28-.63.45-.81.18-.18.45-.34.81-.46.37-.12.6-.19.7-.19s.29.05.56.14c.27.1.5.2.69.31.19.11.34.26.45.45.11.19.21.42.31.69.1.27.14.46.14.56s-.05.29-.14.57c-.1.28-.2.51-.32.69-.12.18-.27.33-.45.45-.18.12-.41.22-.68.31-.27.09-.46.13-.56.13l-.31-.04c-.63-.22-1.03-.42-1.21-.59-.18-.18-.33-.45-.45-.81-.12-.37-.19-.6-.19-.7s.06-.33.19-.69Z"/>
    <path class="cls-2" d="M358.09,122.79c-.06.18-.09.35-.09.52s.08.35.23.55c.15.2.39.3.69.3h.2v.22h-4.42v-.22h.2c.37,0,.73-.12,1.08-.35.39-.26.68-.61.86-1.03l4.97-11.84c.54-1.29.81-2.05.81-2.27h.2l5.9,14.1c.18.44.45.79.84,1.03.35.23.72.35,1.1.35h.18v.22h-4.95v-.22h.2c.31,0,.54-.1.69-.3.15-.2.23-.39.23-.56,0-.19-.03-.36-.09-.52l-4.31-11.46-4.51,11.49Z"/>
    <path class="cls-2" d="M386.03,109.65v13.11c0,.38.14.71.41.98.27.27.6.41,1,.41h.26l.02.22h-4.82v-.22h.29c.38,0,.71-.13.98-.4.27-.26.42-.59.43-.97v-12.21c-.01-.38-.16-.71-.43-.98s-.6-.41-.98-.41h-.29v-.22h5.94c1.33,0,2.38.37,3.15,1.11.76.74,1.14,1.7,1.14,2.88s-.36,2.2-1.09,3.06c-.73.86-1.61,1.29-2.65,1.29.22.1.48.3.78.61s.57.61.8.93c1.26,1.8,2.08,2.92,2.46,3.33.38.42.65.7.81.86.16.15.34.3.53.45.19.15.38.26.57.35.43.21.88.31,1.36.31v.22h-1.21c-.63,0-1.22-.11-1.76-.34-.54-.23-.95-.46-1.22-.7-.27-.24-.51-.48-.7-.7-.2-.23-.74-.99-1.64-2.28-.89-1.29-1.42-2.03-1.56-2.21s-.3-.36-.46-.54c-.47-.5-.94-.75-1.41-.75v-.22c.12.01.27.02.46.02s.42,0,.7-.02c1.82-.04,2.96-.81,3.43-2.29.09-.29.13-.57.13-.82v-.5c-.03-.98-.29-1.78-.77-2.38-.48-.6-1.14-.92-1.96-.97-.35-.01-.79-.02-1.32-.02h-1.41Z"/>
    <path class="cls-2" d="M418.85,110.01c-.25-.26-.54-.39-.88-.41h-4.18v13.18c.01.38.16.7.43.97.27.26.6.4.98.4h.29v.22h-4.82v-.22h.29c.38,0,.71-.13.98-.4.27-.26.41-.58.43-.95v-13.2h-4.18c-.35.01-.65.15-.89.41s-.36.56-.36.91v.37l-.22.02v-2.77c.22.09.6.18,1.14.26.54.09,1.04.13,1.5.13h7.44c.72,0,1.32-.05,1.79-.17.48-.11.77-.19.87-.23v2.77l-.22-.02v-.37c0-.35-.12-.66-.37-.91Z"/>
    <path class="cls-2" d="M432.59,116.35c.12-.36.28-.63.45-.81.18-.18.45-.34.81-.46.37-.12.6-.19.7-.19s.29.05.56.14c.27.1.5.2.69.31.19.11.34.26.45.45.11.19.21.42.31.69s.14.46.14.56-.05.29-.14.57c-.1.28-.2.51-.32.69-.12.18-.27.33-.45.45-.18.12-.41.22-.68.31s-.46.13-.56.13l-.31-.04c-.63-.22-1.03-.42-1.21-.59-.18-.18-.33-.45-.45-.81-.12-.37-.19-.6-.19-.7s.06-.33.19-.69Z"/>
    <path class="cls-2" d="M465.91,116.67c0,2.3-.73,4.16-2.19,5.58-1.46,1.42-3.36,2.12-5.71,2.12h-7.46v-.22h.29c.38,0,.71-.14.98-.41.27-.27.41-.6.43-.98v-12.32c0-.35-.14-.65-.43-.89s-.61-.36-.98-.36h-.26l-.02-.22h7.46c2.35,0,4.25.71,5.71,2.12,1.46,1.42,2.19,3.28,2.19,5.58ZM453.68,123.71h4.33c1.23,0,2.32-.29,3.27-.88.95-.59,1.68-1.41,2.2-2.48s.78-2.29.78-3.69c0-2.11-.58-3.81-1.73-5.1-1.15-1.29-2.66-1.94-4.52-1.94h-4.33v14.08Z"/>
    <path class="cls-2" d="M480.13,123.74c.27-.27.42-.6.43-.98v-12.32c-.04-.35-.2-.65-.46-.89-.26-.24-.58-.36-.95-.36h-.26l-.02-.22h6.45c.46,0,.95-.04,1.49-.13s.91-.18,1.13-.26v2.77h-.22v-.4c0-.35-.12-.65-.36-.9-.24-.25-.53-.38-.87-.4h-4.49v6.8h3.72c.29-.01.54-.12.75-.33.21-.21.31-.46.31-.77v-.31h.22v3.48h-.22v-.33c0-.29-.1-.54-.3-.75-.2-.21-.44-.32-.74-.33h-3.74v6.58h3.15c1.09,0,1.91-.24,2.49-.73.57-.48,1.05-1.2,1.43-2.16h.22l-1.28,3.56h-9.13v-.22h.29c.38,0,.71-.14.98-.41Z"/>
    <path class="cls-2" d="M502.52,122.28c0-.59.11-1.21.33-1.87h.2c-.01.16-.02.32-.02.48,0,.89.27,1.64.81,2.23.54.59,1.26.89,2.16.89s1.68-.28,2.28-.84c.59-.56.89-1.26.89-2.1s-.29-1.53-.86-2.06l-4.22-3.92c-.79-.73-1.19-1.62-1.19-2.66s.35-1.93,1.04-2.67c.7-.74,1.64-1.11,2.83-1.11.56,0,1.19.07,1.89.22h.86v2.71h-.2c0-.69-.24-1.24-.71-1.65-.48-.41-1.09-.62-1.84-.62s-1.38.25-1.88.75c-.51.5-.76,1.12-.76,1.87s.29,1.39.88,1.94l4.33,4c.73.67,1.1,1.6,1.1,2.77s-.37,2.14-1.12,2.89c-.75.75-1.75,1.13-2.99,1.13-.65,0-1.33-.1-2.06-.3-.73-.2-1.29-.5-1.68-.91-.04-.21-.07-.6-.07-1.19Z"/>
    <path class="cls-2" d="M525.27,123.74c.27-.27.42-.6.43-.98v-12.21c-.01-.38-.16-.7-.43-.97-.27-.26-.6-.4-.98-.4h-.29v-.22h4.82v.22h-.29c-.38,0-.71.13-.98.4-.27.26-.42.59-.43.97v12.21c0,.38.14.71.42.98.28.27.61.41.99.41h.29v.22h-4.82v-.22h.29c.38,0,.71-.14.98-.41Z"/>
    <path class="cls-2" d="M542.01,116.67c0-2.39.73-4.32,2.19-5.8,1.46-1.47,3.36-2.21,5.71-2.21,2.02,0,3.81.5,5.35,1.5l.44,3.1h-.2c-.32-1.26-.97-2.23-1.95-2.92-.98-.68-2.19-1.02-3.64-1.02-1.86,0-3.37.67-4.52,2.02-1.15,1.35-1.73,3.12-1.73,5.33s.58,3.97,1.73,5.31c1.15,1.34,2.66,2.02,4.52,2.04.95,0,1.86-.17,2.72-.51.86-.34,1.61-.81,2.26-1.41v-3.89c0-.32-.1-.57-.3-.74-.2-.17-.47-.25-.82-.25h-.35v-.22h4.31v.22h-.33c-.37,0-.65.08-.84.25s-.28.42-.26.74v3.63c-.38.5-.84.95-1.36,1.34-.53.4-1.24.74-2.12,1.04-.89.3-1.85.45-2.89.45-2.35-.01-4.25-.75-5.71-2.22-1.46-1.47-2.19-3.4-2.19-5.79Z"/>
    <path class="cls-2" d="M584.86,109.57c-.26.26-.4.57-.42.94v11.35c0,.85.05,1.66.15,2.42l.04.4h-.2l-11.99-12.81v10.96c.01.51.24.89.68,1.14.21.12.43.18.66.18h.42v.22h-4.53v-.22h.42c.37,0,.68-.13.95-.38.26-.26.4-.58.4-.96v-11.42c0-.89-.05-1.69-.15-2.4l-.04-.35h.22l11.99,12.81v-10.91c-.01-.38-.15-.7-.42-.96-.26-.26-.58-.38-.95-.38h-.42v-.22h4.53v.22h-.4c-.37,0-.68.13-.95.38Z"/>
  </g>
  <g id="Circles_Outlined" data-name="Circles Outlined">
    <path class="cls-1" d="M129.84,23.76c-.58-.62-1.17-1.22-1.78-1.82-2.96-3-6.14-5.7-9.5-8.09-2.88-2.06-5.9-3.89-9.01-5.49-3.52-1.81-7.18-3.34-10.92-4.57-15.24-5-31.94-5.1-47.3-.03-3.72,1.23-7.37,2.76-10.9,4.6-2.43,1.27-4.81,2.68-7.12,4.25-.63.42-1.26.85-1.88,1.29-4.16,2.96-7.92,6.26-11.27,9.83-26.34,28.12-27.43,73.24,0,102.49.58.62,1.17,1.23,1.78,1.83,2.99,3,6.17,5.69,9.49,8.07,2.88,2.06,5.88,3.9,8.96,5.49.01,0,.03.01.04.02,3.48,1.81,7.07,3.32,10.73,4.53.02,0,.03.01.05.02,15.43,5.12,32.13,5.03,47.4,0,.02,0,.03-.01.05-.02,3.72-1.23,7.35-2.74,10.86-4.55.01,0,.03-.01.04-.02,3.11-1.6,6.12-3.43,9-5.48,4.03-2.86,7.82-6.17,11.29-9.9,2.72-2.92,5.24-6.1,7.54-9.55,19.38-28.64,16.06-67.92-7.56-92.93h0ZM137.9,99.27c-1.54,5.21-3.74,10.23-6.63,14.83-.43.68-.87,1.35-1.33,2-2.93,4.21-6.4,7.96-10.31,11.16-4.64,3.81-9.91,6.86-15.64,9.03-2,.76-4.03,1.43-6.1,2-.02,0-.04.01-.05.01-3.73,1.03-7.54,1.76-11.37,2.24-.02,0-.04,0-.06,0-.82.1-1.64.19-2.46.28-6.49.65-13.05.59-19.52-.18-.3-.04-.6-.07-.91-.11-.02,0-.04,0-.06,0-3.81-.49-7.6-1.21-11.3-2.24-.02,0-.04,0-.05-.01-1.53-.42-3.04-.9-4.53-1.42-4.08-1.43-8.01-3.31-11.67-5.61-1.92-1.22-3.77-2.55-5.53-4-1.39-1.14-2.73-2.35-4-3.63-2.32-2.32-4.43-4.86-6.31-7.55-.45-.65-.89-1.31-1.32-1.98-2.3-3.67-4.17-7.59-5.61-11.67-1.92-5.44-3.12-11.14-3.79-16.85-.76-6.48-.82-13.03-.17-19.52.68-6.82,2.09-13.62,4.54-20.04,1.64-4.31,3.77-8.37,6.35-12.09,2.9-4.18,6.36-7.94,10.31-11.19,1.75-1.44,3.6-2.77,5.53-4,4.6-2.9,9.62-5.09,14.83-6.63.48-.14.96-.28,1.44-.41,3.75-1.03,7.57-1.76,11.42-2.25,1.09-.14,2.18-.26,3.27-.36,6.5-.59,13.07-.47,19.54.36.26.03.53.07.79.1,3.65.49,7.21,1.19,10.65,2.15,7.96,2.2,15.31,5.72,21.79,11.04,1.38,1.13,2.71,2.34,4.01,3.64,2.38,2.38,4.48,4.9,6.31,7.55,5.89,8.5,9.08,18.31,10.51,28.89.92,6.73,1.07,13.57.46,20.33-.5,5.45-1.45,10.88-3.02,16.13h0Z"/>
    <path class="cls-1" d="M131.54,55.94c-.59-2.38-1.31-4.76-2.19-7.06-.17-.46-.35-.91-.54-1.36-.01-.04-.03-.07-.04-.11-2.12-5.12-5.04-9.77-8.65-13.8-.02-.02-.04-.04-.05-.06-4.78-5.33-10.74-9.56-17.57-12.36-5.1-2.1-10.53-3.41-15.98-4.16-.38-.05-.76-.1-1.14-.15-3.42-.42-6.86-.63-10.31-.64-.07,0-.15,0-.23,0-2.48,0-4.95.12-7.42.33-.94.09-1.89.19-2.83.3-5.72.71-11.4,2-16.76,4.17-6.97,2.79-13.05,7.08-17.92,12.5-.02.02-.04.04-.05.06-3.6,4.02-6.52,8.67-8.64,13.78-.02.04-.03.07-.04.11-.19.46-.37.91-.54,1.38-.87,2.29-1.6,4.68-2.19,7.06-1.51,6.24-2.2,12.65-2.21,19.06,0,6.41.7,12.82,2.21,19.06.59,2.38,1.32,4.76,2.19,7.06.17.46.36.92.54,1.38,2.12,5.15,5.06,9.83,8.68,13.89,4.87,5.45,10.98,9.76,17.97,12.56,5.32,2.15,10.97,3.44,16.66,4.16.03,0,.06,0,.1.01.94.12,1.89.22,2.83.3,2.45.22,4.92.33,7.38.34.03,0,.07,0,.1,0h.16s.07,0,.1,0c3.41,0,6.82-.22,10.2-.64.03,0,.07,0,.1-.01.35-.04.69-.09,1.04-.14,5.45-.75,10.88-2.06,15.98-4.16,6.85-2.81,12.83-7.06,17.62-12.41,3.6-4.03,6.53-8.68,8.65-13.8.2-.49.39-.98.58-1.47.87-2.3,1.6-4.68,2.19-7.06,1.51-6.24,2.2-12.65,2.21-19.06,0-6.41-.7-12.82-2.21-19.06h0ZM127.03,92.9c-1.73,4.97-4.16,9.66-7.19,13.91-7.97,11.2-20.04,19.43-34.1,22.14-1.73.35-3.47.61-5.18.78-.04,0-.07,0-.11.01-.32.03-.64.06-.96.09-.03,0-.06,0-.1,0-2.97.24-5.9.24-8.78,0-.03,0-.06,0-.1,0-.3-.02-.59-.05-.88-.08-.04,0-.07,0-.11-.01-15.97-1.6-30.27-10.2-39.34-22.9-3.05-4.26-5.51-8.99-7.24-14.06-1.9-5.56-2.93-11.54-2.93-17.79,0-6.26,1.03-12.23,2.93-17.79.01-.04.02-.07.04-.11,1.73-5.03,4.18-9.72,7.21-13.95.02-.02.03-.05.05-.07,9.08-12.66,23.35-21.23,39.29-22.83.36-.04.71-.07,1.07-.1,2.89-.23,5.83-.24,8.8,0,.36.03.73.06,1.1.1,1.74.18,3.49.44,5.25.79,14.04,2.71,26.09,10.91,34.05,22.07.02.02.03.05.05.07,3.04,4.27,5.48,8.97,7.21,13.96.01.03.02.07.04.11,1.93,5.62,2.96,11.6,2.92,17.75.04,6.2-1.01,12.24-2.97,17.9h0Z"/>
  </g>
  <g id="Curves_Outlined" data-name="Curves Outlined">
    <path class="cls-1" d="M101.24,139.41c-.92-.26-2.19-.72-3.11-1-.09-.03-.19-.07-.29-.1-.88-.31-1.97-.7-2.79-1-3.31-1.23-6.54-2.63-9.66-4.2-1.84-.92-3.65-1.9-5.43-2.93-.19-.11-.38-.22-.57-.34-1.49-.88-2.95-1.8-4.38-2.75-16.05-10.68-28.7-25.98-36.12-44.09-.34,1.32-.65,2.64-.94,3.97-.3,1.38-.58,2.78-.83,4.17l-.02.08c-.05.25-.18,1.02-.26,1.47,0,.05-.02.1-.03.15,5.31,9.12,11.89,17.73,19.76,25.59,4.12,4.13,8.44,7.9,12.94,11.32.18.14.37.28.55.42,1.62,1.22,3.27,2.4,4.94,3.53.03.02.05.04.08.06,3.68,2.49,7.46,4.76,11.33,6.81,3.99,2.12,8.07,4,12.21,5.64.02,0,.03-.01.05-.02,3.72-1.23,7.35-2.74,10.86-4.55-2.79-.64-5.56-1.39-8.28-2.22ZM33.06,64.1c-.32-1.45-.61-2.9-.87-4.35-.07-.41-.32-1.75-.38-2.12-.06-.37-.14-.91-.22-1.43-.06-.39-.12-.77-.17-1.05-.1-.68-.24-1.78-.34-2.48-.26-1.95-.47-4.06-.65-6.03-.05-.68-.12-1.78-.19-2.48-.03-.34-.05-.68-.07-1.02-.21-3.17-.31-6.35-.3-9.53-3.6,4.02-6.52,8.67-8.64,13.78-.02.04-.03.07-.04.11.45,3.25,1.03,6.49,1.74,9.7.79,3.59,1.74,7.15,2.85,10.67.75,2.39,1.58,4.77,2.48,7.12,1.42,3.69,3.01,7.33,4.8,10.9.71-3.25,1.56-6.49,2.53-9.66.11-.37.24-.8.39-1.24-.14-.44-.28-.87-.39-1.24-.97-3.17-1.82-6.41-2.53-9.66h0Z"/>
    <path class="cls-1" d="M98.63,3.79c-4.15,1.65-8.23,3.53-12.22,5.65-3.86,2.05-7.64,4.32-11.33,6.81-.04.03-.07.05-.11.08-1.66,1.13-3.3,2.3-4.92,3.51-.18.14-.36.27-.54.41-4.5,3.42-8.82,7.19-12.94,11.32-9.85,9.83-17.68,20.83-23.51,32.53-1.78,3.57-3.38,7.21-4.8,10.9-2.23,5.82-4.01,11.77-5.33,17.79-.71,3.22-1.29,6.45-1.74,9.71,2.12,5.15,5.06,9.83,8.68,13.89-.02-3.18.08-6.36.29-9.53.05-.81.12-1.62.18-2.43l.05-.71.03-.36.03-.35c.17-1.84.37-3.84.62-5.67.11-.78.22-1.67.34-2.48.11-.66.28-1.81.39-2.48.08-.43.29-1.69.38-2.12.26-1.45.55-2.91.87-4.35.71-3.25,1.56-6.49,2.53-9.66.11-.37.24-.8.39-1.24.21-.65.44-1.32.62-1.87.32-.92.77-2.17,1.1-3.08,7.22-19.44,20.36-35.86,37.3-47.13,1.44-.96,2.9-1.88,4.39-2.76.18-.11.36-.21.54-.32,1.78-1.04,3.61-2.03,5.46-2.95,3.13-1.56,6.35-2.97,9.66-4.2.82-.3,1.91-.69,2.79-1,.1-.03.19-.07.29-.1.92-.3,2.19-.74,3.11-1,2.73-.84,5.51-1.58,8.31-2.23-3.52-1.81-7.18-3.34-10.92-4.57h0Z"/>
    <path class="cls-1" d="M128.77,47.41c-2.12-5.12-5.04-9.77-8.65-13.8.02,3.19-.08,6.39-.29,9.58-.07,1.03-.15,2.07-.24,3.1l-.03.36-.03.35c-.1.92-.17,1.89-.28,2.84-.17,1.58-.41,3.39-.63,4.96-.11.79-.32,2.04-.44,2.83-.13.8-.37,2.03-.5,2.83-.15.79-.41,2.03-.56,2.82-.07.3-.13.6-.2.9-.81,3.63-1.76,7.28-2.9,10.82h0c-.02.05-.03.1-.05.15-6.78,21.42-20.54,39.7-38.97,51.95-1.44.96-2.91,1.88-4.4,2.76-.18.11-.36.21-.54.32-1.78,1.04-3.6,2.02-5.46,2.94-1.18.59-2.38,1.15-3.59,1.7-1.02.47-2.32,1-3.35,1.44-.77.31-1.94.76-2.71,1.06-.82.3-1.91.69-2.79,1-.1.04-.2.07-.29.1-.92.3-2.19.74-3.11,1-2.74.85-5.52,1.59-8.33,2.23,3.48,1.81,7.07,3.32,10.73,4.53.02,0,.03.01.05.02,4.19-1.65,8.3-3.53,12.31-5.64,3.9-2.05,7.71-4.32,11.4-6.8.03-.02.05-.04.08-.06,1.68-1.13,3.33-2.3,4.96-3.52.2-.15.39-.29.59-.44,10.79-8.16,20.45-18.26,28.45-30.25,2.97-4.39,5.62-8.92,7.95-13.57,1.77-3.53,3.36-7.14,4.77-10.79,2.25-5.84,4.04-11.82,5.37-17.87.71-3.23,1.29-6.47,1.74-9.74-.01-.04-.03-.07-.04-.11h0Z"/>
    <path class="cls-1" d="M128.77,102.59c-.46-3.25-1.04-6.48-1.74-9.69-.79-3.59-1.74-7.14-2.84-10.65-.75-2.4-1.58-4.77-2.47-7.12-1.42-3.71-3.01-7.37-4.78-10.94-.81,3.63-1.76,7.28-2.9,10.82h0c.14.44.28.87.39,1.25.98,3.18,1.82,6.41,2.53,9.67.44,2.03.84,4.07,1.19,6.11.09.51.19,1.15.28,1.77.07.44.13.87.2,1.24.29,2.14.6,4.41.79,6.56.18,1.74.32,3.48.44,5.23.21,3.19.3,6.39.29,9.58,3.6-4.03,6.53-8.68,8.65-13.8h0ZM80.48,20.26c-.18-.14-.37-.28-.56-.42-1.61-1.2-3.27-2.38-4.96-3.51-.04-.03-.07-.05-.11-.08-.12-.08-.24-.16-.37-.25-3.54-2.39-7.18-4.58-10.89-6.56-4-2.13-8.1-4.03-12.27-5.68-3.72,1.23-7.37,2.76-10.9,4.6,3.27.76,6.54,1.64,9.72,2.67.68.21,1.35.44,2.03.67,4.28,1.46,8.44,3.2,12.43,5.2,1.85.93,3.67,1.91,5.45,2.95.18.1.36.21.53.31,1.5.88,2.97,1.81,4.41,2.77,15.09,10.03,27.24,24.16,34.81,41.07.42.91.9,2.06,1.31,3.03.32-1.26.63-2.56.93-3.92.06-.27.12-.54.18-.82.08-.42.18-.92.28-1.4.09-.46.19-.93.26-1.29.07-.44.17-.96.26-1.47.06-.31.12-.63.16-.92-8.07-13.98-19.01-26.61-32.71-36.94h0Z"/>
  </g>
</svg>