<?xml version="1.0" encoding="UTF-8"?>
<svg id="Layer_2" xmlns="http://www.w3.org/2000/svg" viewBox="0 0 573.59 128.75">
  <defs>
    <style>
      .cls-1, .cls-2, .cls-3 {
        fill: #cba054;
      }

      .cls-2, .cls-3 {
        stroke: #cba054;
        stroke-miterlimit: 10;
      }

      .cls-3 {
        stroke-width: 2px;
      }
    </style>
  </defs>
  <g id="Layer_1-2" data-name="Layer_1">
    <g>
      <path class="cls-3" d="M159.28,66.85c.74-.74,1.13-1.63,1.17-2.67V30.94c-.04-1.04-.43-1.93-1.17-2.67-.74-.74-1.63-1.11-2.67-1.11h-.78v-.6h13.14v.6h-.78c-1.44,0-2.54.62-3.3,1.86-.36.6-.54,1.24-.54,1.92v35.76h8.58c2.96,0,5.22-.66,6.78-1.98,1.56-1.32,2.86-3.28,3.9-5.88h.6l-3.48,9.72h-24.9v-.6h.78c1.04,0,1.93-.37,2.67-1.11Z"/>
      <path class="cls-3" d="M204.1,66.85c.74-.74,1.13-1.63,1.17-2.67V30.58c-.12-.96-.54-1.77-1.26-2.43-.72-.66-1.58-.99-2.58-.99h-.72l-.06-.6h17.58c1.24,0,2.59-.12,4.05-.36s2.49-.48,3.09-.72v7.56h-.6v-1.08c0-.96-.33-1.78-.99-2.46s-1.45-1.04-2.37-1.08h-12.24v18.54h10.14c.8-.04,1.48-.34,2.04-.9.56-.56.84-1.26.84-2.1v-.84h.6v9.48h-.6v-.9c0-.8-.27-1.48-.81-2.04s-1.21-.86-2.01-.9h-10.2v17.94h8.58c2.96,0,5.22-.66,6.78-1.98,1.56-1.32,2.86-3.28,3.9-5.88h.6l-3.48,9.72h-24.9v-.6h.78c1.04,0,1.93-.37,2.67-1.11Z"/>
      <path class="cls-3" d="M288.13,27.16c-1.36,0-2.6.54-3.72,1.62-.64.56-1.14,1.26-1.5,2.1l-14.46,32.34c-1.48,3.24-2.22,5.3-2.22,6.18h-.54l-16.86-38.46c-.56-1.28-1.33-2.23-2.31-2.85-.98-.62-1.97-.93-2.97-.93h-.48v-.6h13.5v.6h-.54c-1.2,0-2,.56-2.4,1.68-.08.24-.12.52-.12.84s.1.72.3,1.2l12.54,31.44,13.08-31.44c.16-.48.24-.95.24-1.41s-.21-.96-.63-1.5-1.05-.81-1.89-.81h-.54v-.6h12.06v.6h-.54Z"/>
      <path class="cls-3" d="M307.12,66.85c.74-.74,1.13-1.63,1.17-2.67V30.88c-.04-1.04-.43-1.92-1.17-2.64-.74-.72-1.63-1.08-2.67-1.08h-.78v-.6h13.14v.6h-.78c-1.04,0-1.93.36-2.67,1.08-.74.72-1.13,1.6-1.17,2.64v33.3c0,1.04.38,1.93,1.14,2.67s1.66,1.11,2.7,1.11h.78v.6h-13.14v-.6h.78c1.04,0,1.93-.37,2.67-1.11Z"/>
      <path class="cls-3" d="M366.67,29.41c-.68-.7-1.48-1.07-2.4-1.11h-11.4v35.94c.04,1.04.43,1.92,1.17,2.64.74.72,1.63,1.08,2.67,1.08h.78v.6h-13.14v-.6h.78c1.04,0,1.93-.36,2.67-1.08.74-.72,1.13-1.58,1.17-2.58V28.3h-11.4c-.96.04-1.77.41-2.43,1.11s-.99,1.53-.99,2.49v1.02l-.6.06v-7.56c.6.24,1.64.48,3.12.72,1.48.24,2.84.36,4.08.36h20.28c1.96,0,3.59-.15,4.89-.45,1.3-.3,2.09-.51,2.37-.63v7.56l-.6-.06v-1.02c0-.96-.34-1.79-1.02-2.49Z"/>
      <path class="cls-3" d="M388.48,66.85c.74-.74,1.13-1.63,1.17-2.67V30.88c-.04-1.04-.43-1.92-1.17-2.64-.74-.72-1.63-1.08-2.67-1.08h-.78v-.6h13.14v.6h-.78c-1.04,0-1.93.36-2.67,1.08-.74.72-1.13,1.6-1.17,2.64v33.3c0,1.04.38,1.93,1.14,2.67s1.66,1.11,2.7,1.11h.78v.6h-13.14v-.6h.78c1.04,0,1.93-.37,2.67-1.11Z"/>
      <path class="cls-3" d="M416.11,47.53c0-6.54,1.99-11.81,5.97-15.81s9.25-6,15.81-6c5.36,0,10.1,1.36,14.22,4.08l1.2,8.46h-.54c-.88-3.44-2.66-6.09-5.34-7.95-2.68-1.86-5.86-2.79-9.54-2.79-5.24,0-9.43,1.82-12.57,5.46-3.14,3.64-4.71,8.46-4.71,14.46s1.55,10.83,4.65,14.49,7.19,5.55,12.27,5.67c4.48,0,8.22-1.22,11.22-3.66,3.24-2.64,5.2-6.94,5.88-12.9h.48l-.72,9.42c-3.64,5.96-9.26,8.94-16.86,8.94-6.32-.04-11.47-2.06-15.45-6.06s-5.97-9.27-5.97-15.81Z"/>
      <path class="cls-3" d="M478.75,64.24c-.16.48-.24.95-.24,1.41s.21.96.63,1.5,1.05.81,1.89.81h.54v.6h-12.06v-.6h.54c1,0,1.98-.32,2.94-.96,1.07-.71,1.85-1.65,2.34-2.82l13.56-32.28c1.48-3.52,2.22-5.58,2.22-6.18h.54l16.08,38.46c.48,1.2,1.24,2.14,2.28,2.82.96.64,1.96.96,3,.96h.48v.6h-13.5v-.6h.54c.84,0,1.47-.27,1.89-.81s.63-1.05.63-1.54c0-.51-.08-.99-.24-1.43l-11.76-31.26-12.3,31.32Z"/>
      <path class="cls-3" d="M568.93,28.21c-.72.7-1.1,1.55-1.14,2.55v30.96c0,2.32.14,4.52.42,6.6l.12,1.08h-.54l-32.7-34.92v29.88c.04,1.4.66,2.44,1.86,3.12.56.32,1.16.48,1.8.48h1.14v.6h-12.36v-.6h1.14c1,0,1.86-.35,2.58-1.05s1.08-1.57,1.08-2.61v-31.14c0-2.44-.14-4.62-.42-6.54l-.12-.96h.6l32.7,34.92v-29.76c-.04-1.04-.42-1.91-1.14-2.61s-1.58-1.05-2.58-1.05h-1.14v-.6h12.36v.6h-1.08c-1,0-1.86.35-2.58,1.05Z"/>
      <path class="cls-2" d="M178.03,104.34v.22h-4.77v-.2h.33c.25,0,.46-.1.64-.3s.25-.42.22-.65l-.99-11.07-4.62,10.28c-.41.89-.66,1.64-.75,2.24h-.22l-5.63-12.21-.95,10.76c-.03.23.04.45.22.65s.38.3.62.3h.35v.2h-4.27v-.22h.35c.41,0,.77-.12,1.07-.37.3-.25.48-.59.54-1.01l1.65-14.1h.22l6.14,13.27,6.01-13.27h.2l1.69,14.1c.07.59.37,1,.88,1.23.22.1.46.15.73.15h.35Z"/>
      <path class="cls-2" d="M204.19,91.06c1.47,1.47,2.2,3.41,2.2,5.8s-.73,4.32-2.2,5.8c-1.47,1.47-3.37,2.21-5.72,2.21s-4.25-.74-5.71-2.21c-1.46-1.47-2.19-3.41-2.19-5.8s.73-4.32,2.19-5.8c1.46-1.47,3.36-2.21,5.71-2.21s4.25.74,5.72,2.21ZM202.99,102.18c1.14-1.35,1.71-3.12,1.71-5.32,0-1.45-.26-2.74-.77-3.85-.51-1.12-1.24-1.98-2.19-2.59-.95-.61-2.04-.91-3.27-.91-1.86,0-3.36.67-4.5,2.02s-1.71,3.12-1.71,5.33.57,3.97,1.71,5.32,2.64,2.02,4.51,2.02,3.37-.67,4.51-2.02Z"/>
      <path class="cls-2" d="M230.5,90.2c-.25-.26-.54-.39-.88-.41h-4.18v13.18c.01.38.16.7.43.97.27.26.6.4.98.4h.29v.22h-4.82v-.22h.29c.38,0,.71-.13.98-.4.27-.26.41-.58.43-.95v-13.2h-4.18c-.35.01-.65.15-.89.41s-.36.56-.36.91v.37l-.22.02v-2.77c.22.09.6.18,1.14.26.54.09,1.04.13,1.5.13h7.44c.72,0,1.32-.05,1.79-.17.48-.11.77-.19.87-.23v2.77l-.22-.02v-.37c0-.35-.12-.66-.37-.91Z"/>
      <path class="cls-2" d="M245.09,103.93c.27-.27.41-.6.43-.98v-12.21c-.01-.38-.16-.7-.43-.97-.27-.26-.6-.4-.98-.4h-.29v-.22h4.82v.22h-.29c-.38,0-.71.13-.98.4-.27.26-.41.59-.43.97v12.21c0,.38.14.71.42.98.28.27.61.41.99.41h.29v.22h-4.82v-.22h.29c.38,0,.71-.14.98-.41Z"/>
      <path class="cls-2" d="M275.66,91.06c1.47,1.47,2.2,3.41,2.2,5.8s-.73,4.32-2.2,5.8c-1.47,1.47-3.37,2.21-5.72,2.21s-4.25-.74-5.71-2.21c-1.46-1.47-2.19-3.41-2.19-5.8s.73-4.32,2.19-5.8c1.46-1.47,3.36-2.21,5.71-2.21s4.25.74,5.72,2.21ZM274.47,102.18c1.14-1.35,1.71-3.12,1.71-5.32,0-1.45-.26-2.74-.77-3.85-.51-1.12-1.24-1.98-2.19-2.59-.95-.61-2.04-.91-3.27-.91-1.86,0-3.36.67-4.5,2.02-1.14,1.35-1.71,3.12-1.71,5.33s.57,3.97,1.71,5.32c1.14,1.35,2.64,2.02,4.51,2.02s3.37-.67,4.51-2.02Z"/>
      <path class="cls-2" d="M305.67,89.76c-.26.26-.4.57-.42.94v11.35c0,.85.05,1.66.15,2.42l.04.4h-.2l-11.99-12.81v10.96c.01.51.24.89.68,1.14.21.12.42.18.66.18h.42v.22h-4.53v-.22h.42c.37,0,.68-.13.95-.38s.4-.58.4-.96v-11.42c0-.89-.05-1.69-.15-2.4l-.04-.35h.22l11.99,12.81v-10.91c-.01-.38-.15-.7-.42-.96-.26-.26-.58-.38-.95-.38h-.42v-.22h4.53v.22h-.4c-.37,0-.68.13-.95.38Z"/>
      <path class="cls-2" d="M320.73,96.54c.12-.36.28-.63.45-.81.18-.18.45-.34.81-.46.37-.12.6-.19.7-.19s.29.05.56.14c.27.1.5.2.69.31.19.11.34.26.45.45.11.19.21.42.31.69s.14.46.14.56-.05.29-.14.57c-.1.28-.2.51-.32.69-.12.18-.27.33-.45.45-.18.12-.41.22-.68.31s-.46.13-.56.13l-.31-.04c-.63-.22-1.03-.42-1.21-.59-.18-.18-.33-.45-.45-.81-.12-.37-.19-.6-.19-.7s.06-.33.19-.69Z"/>
      <path class="cls-2" d="M340.54,102.98c-.06.18-.09.35-.09.52s.08.35.23.55.39.3.69.3h.2v.22h-4.42v-.22h.2c.37,0,.73-.12,1.08-.35.39-.26.68-.61.86-1.03l4.97-11.84c.54-1.29.81-2.05.81-2.27h.2l5.9,14.1c.18.44.46.79.84,1.03.35.23.72.35,1.1.35h.18v.22h-4.95v-.22h.2c.31,0,.54-.1.69-.3.15-.2.23-.39.23-.56,0-.19-.03-.36-.09-.52l-4.31-11.46-4.51,11.49Z"/>
      <path class="cls-2" d="M368.48,89.84v13.11c0,.38.14.71.41.98.27.27.61.41,1,.41h.26l.02.22h-4.82v-.22h.29c.38,0,.71-.13.98-.4.27-.26.41-.59.43-.97v-12.21c-.01-.38-.16-.71-.43-.98s-.6-.41-.98-.41h-.29v-.22h5.94c1.33,0,2.38.37,3.15,1.11.76.74,1.14,1.7,1.14,2.88s-.36,2.2-1.09,3.06c-.73.86-1.61,1.29-2.65,1.29.22.1.48.3.78.61s.57.61.8.93c1.26,1.8,2.08,2.92,2.46,3.33.38.42.65.7.81.86.16.15.34.3.53.45.19.15.38.26.57.35.42.21.88.31,1.36.31v.22h-1.21c-.63,0-1.22-.11-1.76-.34-.54-.23-.95-.46-1.22-.7-.27-.24-.51-.48-.7-.7-.2-.23-.75-.99-1.64-2.28-.89-1.29-1.42-2.03-1.56-2.21s-.3-.36-.46-.54c-.47-.5-.94-.75-1.41-.75v-.22c.12.01.27.02.46.02s.43,0,.7-.02c1.82-.04,2.96-.81,3.43-2.29.09-.29.13-.57.13-.82v-.5c-.03-.98-.29-1.78-.77-2.38-.48-.6-1.14-.92-1.96-.97-.35-.01-.79-.02-1.32-.02h-1.41Z"/>
      <path class="cls-2" d="M401.31,90.2c-.25-.26-.54-.39-.88-.41h-4.18v13.18c.01.38.16.7.43.97.27.26.6.4.98.4h.29v.22h-4.82v-.22h.29c.38,0,.71-.13.98-.4.27-.26.41-.58.43-.95v-13.2h-4.18c-.35.01-.65.15-.89.41-.24.26-.36.56-.36.91v.37l-.22.02v-2.77c.22.09.6.18,1.14.26s1.04.13,1.5.13h7.44c.72,0,1.32-.05,1.79-.17.48-.11.77-.19.87-.23v2.77l-.22-.02v-.37c0-.35-.12-.66-.37-.91Z"/>
      <path class="cls-2" d="M415.04,96.54c.12-.36.28-.63.45-.81.18-.18.45-.34.81-.46.37-.12.6-.19.7-.19s.29.05.56.14c.27.1.5.2.69.31.19.11.34.26.45.45.11.19.21.42.31.69.09.27.14.46.14.56s-.05.29-.14.57c-.1.28-.2.51-.32.69-.12.18-.27.33-.45.45s-.41.22-.68.31c-.27.09-.46.13-.56.13l-.31-.04c-.63-.22-1.03-.42-1.21-.59s-.33-.45-.45-.81c-.12-.37-.19-.6-.19-.7s.06-.33.19-.69Z"/>
      <path class="cls-2" d="M448.36,96.86c0,2.3-.73,4.16-2.19,5.58-1.46,1.42-3.36,2.12-5.71,2.12h-7.46v-.22h.29c.38,0,.71-.14.98-.41.27-.27.42-.6.43-.98v-12.32c0-.35-.14-.65-.43-.89s-.61-.36-.98-.36h-.26l-.02-.22h7.46c2.35,0,4.25.71,5.71,2.12,1.46,1.42,2.19,3.28,2.19,5.58ZM436.13,103.9h4.33c1.23,0,2.32-.29,3.27-.88.95-.59,1.68-1.41,2.2-2.48s.78-2.29.78-3.69c0-2.11-.58-3.81-1.73-5.1-1.15-1.29-2.66-1.94-4.52-1.94h-4.33v14.08Z"/>
      <path class="cls-2" d="M462.59,103.93c.27-.27.41-.6.43-.98v-12.32c-.04-.35-.2-.65-.46-.89s-.58-.36-.95-.36h-.26l-.02-.22h6.45c.45,0,.95-.04,1.49-.13.54-.09.91-.18,1.13-.26v2.77h-.22v-.4c0-.35-.12-.65-.36-.9s-.53-.38-.87-.4h-4.49v6.8h3.72c.29-.01.54-.12.75-.33s.31-.46.31-.77v-.31h.22v3.48h-.22v-.33c0-.29-.1-.54-.3-.75-.2-.21-.44-.32-.74-.33h-3.74v6.58h3.15c1.08,0,1.91-.24,2.49-.73.57-.48,1.05-1.2,1.43-2.16h.22l-1.28,3.56h-9.13v-.22h.29c.38,0,.71-.14.98-.41Z"/>
      <path class="cls-2" d="M484.97,102.47c0-.59.11-1.21.33-1.87h.2c-.01.16-.02.32-.02.48,0,.89.27,1.64.81,2.23.54.59,1.26.89,2.16.89s1.68-.28,2.28-.84c.59-.56.89-1.26.89-2.1s-.29-1.53-.86-2.06l-4.22-3.92c-.79-.73-1.19-1.62-1.19-2.66s.35-1.93,1.04-2.67c.7-.74,1.64-1.11,2.83-1.11.56,0,1.19.07,1.89.22h.86v2.71h-.2c0-.69-.24-1.24-.71-1.65-.48-.41-1.09-.62-1.84-.62s-1.38.25-1.88.75c-.51.5-.76,1.12-.76,1.87s.29,1.39.88,1.94l4.33,4c.73.67,1.1,1.6,1.1,2.77s-.37,2.14-1.12,2.89c-.75.75-1.75,1.13-2.99,1.13-.65,0-1.33-.1-2.06-.3-.73-.2-1.29-.5-1.68-.91-.04-.21-.07-.6-.07-1.19Z"/>
      <path class="cls-2" d="M507.73,103.93c.27-.27.42-.6.43-.98v-12.21c-.01-.38-.16-.7-.43-.97-.27-.26-.6-.4-.98-.4h-.29v-.22h4.82v.22h-.29c-.38,0-.71.13-.98.4-.27.26-.42.59-.43.97v12.21c0,.38.14.71.42.98.28.27.61.41.99.41h.29v.22h-4.82v-.22h.29c.38,0,.71-.14.98-.41Z"/>
      <path class="cls-2" d="M524.46,96.86c0-2.39.73-4.32,2.19-5.8,1.46-1.47,3.36-2.21,5.71-2.21,2.02,0,3.81.5,5.35,1.5l.44,3.1h-.2c-.32-1.26-.97-2.23-1.95-2.92-.98-.68-2.19-1.02-3.64-1.02-1.86,0-3.37.67-4.52,2.02-1.15,1.35-1.73,3.12-1.73,5.33s.58,3.97,1.73,5.31c1.15,1.34,2.66,2.02,4.52,2.04.95,0,1.86-.17,2.72-.51.86-.34,1.61-.81,2.26-1.41v-3.89c0-.32-.1-.57-.3-.74-.2-.17-.47-.25-.82-.25h-.35v-.22h4.31v.22h-.33c-.37,0-.65.08-.84.25s-.28.42-.26.74v3.63c-.38.5-.84.95-1.36,1.34-.53.4-1.24.74-2.12,1.04-.89.3-1.85.45-2.89.45-2.35-.01-4.25-.75-5.71-2.22-1.46-1.47-2.19-3.4-2.19-5.79Z"/>
      <path class="cls-2" d="M567.32,89.76c-.26.26-.4.57-.42.94v11.35c0,.85.05,1.66.15,2.42l.04.4h-.2l-11.99-12.81v10.96c.01.51.24.89.68,1.14.21.12.43.18.66.18h.42v.22h-4.53v-.22h.42c.37,0,.68-.13.95-.38.26-.26.4-.58.4-.96v-11.42c0-.89-.05-1.69-.15-2.4l-.04-.35h.22l11.99,12.81v-10.91c-.01-.38-.15-.7-.42-.96-.26-.26-.58-.38-.95-.38h-.42v-.22h4.53v.22h-.4c-.37,0-.68.13-.95.38Z"/>
    </g>
    <g>
      <g id="Circles_Outlined">
        <path class="cls-1" d="M111.44,20.39c-.5-.53-1.01-1.05-1.53-1.56-2.54-2.57-5.27-4.89-8.15-6.94-2.47-1.77-5.06-3.34-7.74-4.71-3.02-1.56-6.16-2.87-9.37-3.92-13.08-4.29-27.41-4.38-40.6-.03-3.2,1.05-6.33,2.37-9.35,3.95-2.09,1.09-4.13,2.3-6.11,3.64-.54.36-1.08.73-1.61,1.11-3.57,2.54-6.79,5.37-9.67,8.44-22.6,24.13-23.55,62.87,0,87.97.5.53,1.01,1.06,1.53,1.57,2.57,2.58,5.3,4.89,8.15,6.93,2.48,1.77,5.05,3.34,7.69,4.72.01,0,.02.01.03.02,2.99,1.55,6.07,2.85,9.21,3.89.01,0,.03,0,.04.01,13.25,4.39,27.58,4.32,40.69,0,.01,0,.03,0,.04-.01,3.19-1.05,6.31-2.35,9.32-3.91.01,0,.02-.01.03-.02,2.67-1.37,5.25-2.94,7.73-4.7,3.46-2.46,6.71-5.29,9.69-8.49,2.33-2.51,4.5-5.24,6.47-8.19,16.63-24.58,13.78-58.29-6.49-79.76h0ZM118.36,85.2c-1.32,4.47-3.21,8.78-5.69,12.73-.37.58-.75,1.16-1.14,1.72-2.51,3.62-5.49,6.83-8.85,9.58-3.99,3.27-8.51,5.88-13.42,7.75-1.72.66-3.46,1.22-5.23,1.71-.02,0-.03,0-.05.01-3.2.88-6.47,1.51-9.76,1.93-.02,0-.03,0-.05,0-.7.09-1.41.17-2.11.24-5.57.56-11.2.5-16.76-.15-.26-.03-.52-.06-.78-.09-.02,0-.03,0-.05,0-3.27-.42-6.52-1.04-9.7-1.92-.02,0-.03,0-.05-.01-1.31-.36-2.61-.77-3.89-1.22-3.5-1.23-6.87-2.84-10.02-4.81-1.65-1.05-3.24-2.19-4.75-3.43-1.2-.98-2.34-2.02-3.44-3.11-2-1.99-3.81-4.17-5.41-6.48-.39-.56-.77-1.13-1.13-1.7-1.98-3.15-3.58-6.52-4.81-10.02-1.65-4.67-2.68-9.56-3.25-14.47-.65-5.56-.71-11.19-.15-16.76.58-5.86,1.79-11.69,3.9-17.2,1.4-3.7,3.23-7.18,5.45-10.38,2.49-3.59,5.46-6.81,8.85-9.6,1.5-1.23,3.09-2.38,4.75-3.43,3.95-2.49,8.26-4.37,12.73-5.69.41-.12.82-.24,1.23-.35,3.22-.89,6.5-1.51,9.8-1.93.93-.12,1.87-.22,2.81-.3,5.58-.5,11.22-.4,16.77.3.23.03.45.06.68.09,3.13.42,6.18,1.03,9.14,1.84,6.83,1.89,13.14,4.91,18.7,9.47,1.18.97,2.33,2.01,3.44,3.12,2.05,2.04,3.84,4.21,5.42,6.48,5.05,7.3,7.79,15.71,9.02,24.8.79,5.78.92,11.64.39,17.45-.43,4.68-1.25,9.33-2.59,13.84h0Z"/>
        <path class="cls-1" d="M112.9,48.01c-.51-2.04-1.13-4.09-1.88-6.06-.15-.39-.3-.78-.46-1.17-.01-.03-.02-.06-.04-.09-1.82-4.4-4.33-8.39-7.42-11.84-.02-.02-.03-.03-.05-.05-4.1-4.57-9.22-8.2-15.08-10.61-4.38-1.8-9.04-2.92-13.71-3.57-.33-.05-.65-.09-.98-.13-2.93-.36-5.89-.54-8.84-.55-.06,0-.13,0-.19,0-2.13,0-4.25.1-6.37.29-.81.07-1.62.16-2.43.26-4.91.61-9.79,1.72-14.38,3.58-5.98,2.39-11.2,6.07-15.38,10.73-.02.02-.03.03-.05.05-3.09,3.45-5.6,7.44-7.41,11.82-.01.03-.03.06-.04.09-.16.39-.32.78-.47,1.18-.75,1.97-1.37,4.01-1.88,6.06-1.3,5.35-1.89,10.86-1.9,16.36,0,5.5.6,11.01,1.9,16.36.51,2.04,1.13,4.09,1.88,6.06.15.4.3.79.47,1.18,1.82,4.42,4.34,8.44,7.45,11.92,4.18,4.68,9.42,8.38,15.43,10.78,4.57,1.85,9.42,2.96,14.3,3.57.03,0,.06,0,.08.01.81.1,1.62.19,2.43.26,2.11.19,4.22.28,6.33.29.03,0,.06,0,.09,0h.14s.06,0,.09,0c2.93,0,5.85-.19,8.75-.55.03,0,.06,0,.09-.01.3-.04.6-.08.89-.12,4.68-.65,9.34-1.77,13.71-3.57,5.88-2.41,11.01-6.06,15.12-10.65,3.09-3.46,5.61-7.45,7.43-11.85.17-.42.34-.84.5-1.26.75-1.97,1.37-4.01,1.88-6.06,1.3-5.35,1.89-10.86,1.9-16.36,0-5.5-.6-11.01-1.9-16.36ZM109.03,79.73c-1.48,4.27-3.57,8.29-6.17,11.94-6.84,9.61-17.2,16.67-29.27,19-1.49.3-2.97.52-4.45.67-.03,0-.06,0-.1,0-.27.03-.55.05-.82.08-.03,0-.06,0-.08,0-2.54.21-5.06.21-7.54,0-.03,0-.05,0-.08,0-.25-.02-.51-.04-.76-.07-.03,0-.06,0-.1,0-13.71-1.38-25.98-8.76-33.77-19.66-2.61-3.66-4.72-7.71-6.21-12.07-1.63-4.77-2.52-9.9-2.51-15.27,0-5.37.88-10.5,2.51-15.27.01-.03.02-.06.03-.09,1.49-4.32,3.59-8.34,6.18-11.98.01-.02.03-.04.04-.06,7.79-10.86,20.04-18.22,33.72-19.59.31-.03.61-.06.92-.08,2.48-.2,5-.2,7.55,0,.31.03.63.05.94.09,1.5.15,3,.38,4.51.68,12.05,2.32,22.39,9.36,29.23,18.94.01.02.03.04.04.06,2.61,3.66,4.7,7.7,6.19,11.98.01.03.02.06.03.09,1.66,4.82,2.54,9.96,2.51,15.23.03,5.32-.86,10.5-2.55,15.36Z"/>
      </g>
      <g id="Curves_Outlined">
        <path class="cls-1" d="M86.78,119.04c-.79-.22-1.87-.61-2.65-.86-.08-.03-.16-.06-.25-.09-.75-.26-1.68-.6-2.38-.85-2.83-1.05-5.58-2.25-8.25-3.58-1.57-.79-3.12-1.62-4.63-2.51-.16-.1-.33-.19-.49-.29-1.27-.75-2.52-1.53-3.74-2.35-13.71-9.12-24.5-22.19-30.84-37.65-.29,1.13-.56,2.26-.8,3.39-.26,1.18-.5,2.38-.71,3.56v.07c-.06.21-.17.87-.24,1.26,0,.04-.02.09-.02.13,4.53,7.78,10.15,15.14,16.88,21.85,3.52,3.53,7.21,6.75,11.05,9.67.16.12.31.24.47.35,1.39,1.04,2.79,2.05,4.22,3.01.02.02.05.03.07.05,3.14,2.13,6.37,4.06,9.67,5.81,3.41,1.81,6.89,3.41,10.43,4.82.01,0,.03,0,.04-.01,3.17-1.05,6.28-2.34,9.27-3.89-2.38-.55-4.75-1.18-7.07-1.9h0ZM28.56,54.73c-.27-1.24-.52-2.48-.74-3.72-.06-.35-.27-1.5-.32-1.81-.05-.31-.12-.78-.19-1.22-.05-.33-.1-.66-.14-.9-.09-.58-.2-1.52-.29-2.12-.22-1.67-.4-3.47-.56-5.14-.05-.58-.11-1.52-.16-2.12-.02-.29-.04-.58-.06-.87-.18-2.7-.27-5.42-.25-8.14-3.07,3.44-5.57,7.4-7.37,11.76-.01.03-.03.06-.04.09.38,2.78.88,5.54,1.48,8.29.67,3.06,1.48,6.1,2.43,9.11.64,2.04,1.35,4.07,2.12,6.08,1.21,3.15,2.57,6.26,4.1,9.31.61-2.78,1.33-5.54,2.16-8.25.09-.32.21-.68.33-1.06-.12-.37-.24-.74-.33-1.06-.83-2.71-1.55-5.47-2.16-8.25h0Z"/>
        <path class="cls-1" d="M84.55,3.24c-3.54,1.41-7.03,3.01-10.44,4.82-3.3,1.75-6.53,3.69-9.67,5.81-.03.02-.06.04-.1.07-1.42.96-2.82,1.96-4.2,3-.15.12-.31.23-.46.35-3.84,2.92-7.53,6.14-11.05,9.67-8.41,8.39-15.09,17.79-20.08,27.78-1.52,3.05-2.89,6.16-4.1,9.31-1.91,4.97-3.42,10.05-4.55,15.19-.6,2.75-1.1,5.51-1.48,8.29,1.81,4.4,4.32,8.4,7.41,11.86-.01-2.72.07-5.43.25-8.14.05-.69.1-1.39.16-2.08l.04-.61.02-.3.03-.3c.15-1.57.32-3.28.53-4.84.1-.66.19-1.42.29-2.12.09-.57.24-1.54.33-2.11.07-.37.25-1.44.32-1.81.22-1.24.47-2.48.74-3.72.61-2.78,1.33-5.54,2.16-8.25.09-.32.21-.68.33-1.06.18-.55.38-1.13.53-1.6.27-.79.65-1.85.94-2.63,6.17-16.6,17.39-30.62,31.85-40.24,1.23-.82,2.48-1.6,3.75-2.35.15-.09.31-.18.46-.27,1.52-.89,3.08-1.73,4.66-2.52,2.67-1.34,5.42-2.53,8.25-3.58.7-.26,1.63-.59,2.39-.85.08-.03.17-.06.25-.09.79-.25,1.87-.63,2.65-.86,2.33-.72,4.71-1.35,7.09-1.9-3.01-1.55-6.13-2.85-9.32-3.9h0Z"/>
        <path class="cls-1" d="M110.29,40.48c-1.81-4.37-4.31-8.34-7.38-11.78.01,2.73-.07,5.45-.25,8.18-.06.88-.13,1.77-.2,2.65l-.02.3-.03.3c-.09.79-.14,1.62-.24,2.42-.15,1.35-.35,2.89-.53,4.24-.1.68-.28,1.74-.38,2.42-.11.68-.32,1.74-.43,2.41-.13.68-.35,1.73-.48,2.41-.06.26-.11.51-.17.77-.69,3.1-1.5,6.21-2.48,9.24h0s-.03.09-.04.13c-5.79,18.29-17.54,33.9-33.27,44.36-1.23.82-2.48,1.6-3.76,2.36-.15.09-.31.18-.46.27-1.52.88-3.07,1.72-4.66,2.51-1.01.5-2.03.99-3.06,1.45-.87.4-1.98.86-2.86,1.23-.66.26-1.66.65-2.32.91-.7.26-1.63.59-2.38.85-.09.03-.17.06-.25.09-.79.25-1.87.63-2.65.86-2.34.72-4.72,1.35-7.11,1.9,2.97,1.54,6.04,2.83,9.16,3.87.01,0,.03,0,.04.01,3.58-1.41,7.08-3.02,10.51-4.82,3.33-1.75,6.58-3.69,9.73-5.81.02-.02.05-.03.07-.05,1.43-.96,2.84-1.96,4.23-3,.17-.13.34-.25.5-.38,9.21-6.97,17.46-15.59,24.29-25.83,2.53-3.75,4.8-7.62,6.79-11.59,1.51-3.02,2.87-6.09,4.07-9.21,1.92-4.99,3.45-10.09,4.58-15.26.6-2.75,1.1-5.53,1.48-8.31-.01-.03-.02-.06-.04-.09h0Z"/>
        <path class="cls-1" d="M110.29,87.6c-.39-2.78-.89-5.54-1.49-8.28-.68-3.06-1.48-6.1-2.43-9.09-.64-2.05-1.35-4.07-2.11-6.08-1.21-3.17-2.57-6.29-4.09-9.35-.69,3.1-1.5,6.21-2.48,9.24h0c.12.38.24.74.33,1.06.84,2.71,1.55,5.48,2.16,8.26.38,1.73.72,3.47,1.01,5.22.08.44.16.98.24,1.51.06.38.11.74.17,1.06.25,1.82.51,3.77.68,5.6.15,1.48.28,2.97.37,4.46.18,2.72.26,5.45.24,8.18,3.08-3.44,5.58-7.41,7.39-11.79h0ZM69.05,17.3c-.16-.12-.32-.24-.47-.36-1.38-1.03-2.79-2.03-4.23-3-.03-.02-.06-.04-.1-.06-.1-.07-.21-.14-.31-.21-3.02-2.04-6.13-3.91-9.3-5.6-3.42-1.82-6.92-3.44-10.47-4.85-3.18,1.05-6.29,2.36-9.31,3.93,2.79.65,5.58,1.4,8.3,2.28.58.18,1.16.37,1.73.57,3.66,1.24,7.2,2.73,10.62,4.44,1.58.79,3.13,1.63,4.65,2.52.15.09.3.18.45.27,1.28.75,2.53,1.54,3.76,2.36,12.88,8.57,23.26,20.63,29.73,35.07.36.78.77,1.76,1.12,2.59.27-1.08.54-2.19.8-3.35.05-.23.1-.47.15-.7.07-.36.15-.78.24-1.2.08-.39.16-.79.22-1.1.06-.38.14-.82.22-1.26.05-.27.1-.54.14-.78-6.89-11.93-16.23-22.72-27.93-31.54h0Z"/>
      </g>
    </g>
  </g>
</svg>