<?xml version="1.0" encoding="UTF-8"?>
<svg id="Layer_1" xmlns="http://www.w3.org/2000/svg" version="1.1" viewBox="0 0 24 24">
  <!-- Generator: Adobe Illustrator 29.1.0, SVG Export Plug-In . SVG Version: 2.1.0 Build 142)  -->
  <defs>
    <style>
      .st0 {
        fill: #cba054;
      }
    </style>
  </defs>
  <path class="st0" d="M24,4.6c-.9.4-1.8.7-2.8.8,1-.6,1.8-1.6,2.2-2.7-1,.6-2,1-3.1,1.2-.9-1-2.2-1.6-3.6-1.6-3.2,0-5.5,3-4.8,6-4.1-.2-7.7-2.2-10.1-5.1-1.3,2.2-.7,5.1,1.5,6.6-.8,0-1.6-.2-2.2-.6,0,2.3,1.6,4.4,3.9,4.9-.7.2-1.5.2-2.2,0,.6,2,2.4,3.4,4.6,3.4C5.2,19.1,2.6,19.8,0,19.5c2.2,1.4,4.8,2.2,7.5,2.2,9.1,0,14.3-7.7,14-14.6,1-.7,1.8-1.6,2.5-2.5Z"/>
</svg>