<?xml version="1.0" encoding="UTF-8"?>
<svg id="Layer_1" xmlns="http://www.w3.org/2000/svg" viewBox="0 0 1024 742.63">
  <defs>
    <style>
      .cls-1 {
        fill: #cba054;
      }
    </style>
  </defs>
  <path class="cls-1" d="M1024,368.11c0-2.51,0-5.37-.11-8.69-.11-9.26-.34-19.66-.57-30.74-.91-31.89-2.51-63.66-5.03-93.6-3.43-41.26-8.46-75.66-15.31-101.49-14.73-54.85-57.52-97.73-112.34-112.57-32.34-8.69-95.66-14.06-184.8-17.37-42.4-1.6-87.77-2.63-133.14-3.2-15.89-.23-30.63-.34-43.89-.46h-33.6c-13.26.11-28,.23-43.89.46-45.37.57-90.74,1.6-133.14,3.2-89.14,3.43-152.57,8.8-184.8,17.37-54.84,14.8-97.65,57.7-112.34,112.57-6.97,25.83-11.89,60.23-15.31,101.49-2.51,29.94-4.11,61.71-5.03,93.6-.34,11.09-.46,21.49-.57,30.74,0,3.31-.11,6.17-.11,8.69v6.4c0,2.51,0,5.37.11,8.69.11,9.26.34,19.66.57,30.74.91,31.89,2.51,63.66,5.03,93.6,3.43,41.26,8.46,75.66,15.31,101.49,14.63,54.74,57.6,97.94,112.34,112.57,32.23,8.69,95.66,14.06,184.8,17.37,42.4,1.6,87.77,2.63,133.14,3.2,15.89.23,30.63.34,43.89.46h33.6c13.26-.11,28-.23,43.89-.46,45.37-.57,90.74-1.6,133.14-3.2,89.14-3.43,152.57-8.8,184.8-17.37,54.74-14.63,97.71-57.71,112.34-112.57,6.97-25.83,11.89-60.23,15.31-101.49,2.51-29.94,4.11-61.71,5.03-93.6.34-11.09.46-21.49.57-30.74,0-3.31.11-6.17.11-8.69v-6.4h0ZM941.71,374.06c0,2.4,0,5.03-.11,8.11-.11,8.91-.34,18.74-.57,29.37-.8,30.4-2.4,60.8-4.8,89.03-3.09,36.8-7.43,66.97-12.8,87.2-7.09,26.4-27.89,47.31-54.17,54.29-24,6.4-84.46,11.54-166.63,14.63-41.6,1.6-86.4,2.63-131.09,3.2-15.66.23-30.17.34-43.2.34h-32.69l-43.2-.34c-44.69-.57-89.37-1.6-131.09-3.2-82.17-3.2-142.74-8.23-166.63-14.63-26.29-7.09-47.09-27.89-54.17-54.29-5.37-20.23-9.71-50.4-12.8-87.2-2.4-28.23-3.89-58.63-4.8-89.03-.34-10.63-.46-20.57-.57-29.37,0-3.09-.11-5.83-.11-8.11v-5.49c0-2.4,0-5.03.11-8.11.11-8.91.34-18.74.57-29.37.8-30.4,2.4-60.8,4.8-89.03,3.09-36.8,7.43-66.97,12.8-87.2,7.09-26.4,27.89-47.31,54.17-54.29,24-6.4,84.46-11.54,166.63-14.63,41.6-1.6,86.4-2.63,131.09-3.2,15.66-.23,30.17-.34,43.2-.34h32.69l43.2.34c44.69.57,89.37,1.6,131.09,3.2,82.17,3.2,142.74,8.23,166.63,14.63,26.29,7.09,47.09,27.89,54.17,54.29,5.37,20.23,9.71,50.4,12.8,87.2,2.4,28.23,3.89,58.63,4.8,89.03.34,10.63.46,20.57.57,29.37,0,3.09.11,5.83.11,8.11v5.49ZM410.29,524.46l265.14-154.29-265.14-152v306.29Z"/>
</svg>